<?xml version="1.0" encoding="UTF-8" standalone="no"?>
<!DOCTYPE svg PUBLIC "-//W3C//DTD SVG 1.1//EN" "http://www.w3.org/Graphics/SVG/1.1/DTD/svg11.dtd">
<svg version="1.1" xmlns="http://www.w3.org/2000/svg" xmlns:xlink="http://www.w3.org/1999/xlink" preserveAspectRatio="xMidYMid meet" viewBox="168.75946775844415 324.26612077789156 103.99999999999994 104" width="100" height="100"><defs><path d="M259.76 415.27L269.76 415.27L269.76 425.27L259.76 415.27ZM239.69 395.19L229.76 385.27L269.76 385.27L269.76 395.19L239.69 395.19ZM209.76 365.27L199.8 355.31L269.76 355.31L269.76 365.27L209.76 365.27ZM269.76 335.27L179.76 335.27L169.76 325.27L269.76 325.27L269.76 335.27Z" id="e2j7mmu6Dg"></path></defs><g><g><g><filter id="shadow9483788" x="160.76" y="316.27" width="119" height="119" filterUnits="userSpaceOnUse" primitiveUnits="userSpaceOnUse"><feFlood></feFlood><feComposite in2="SourceAlpha" operator="in"></feComposite><feGaussianBlur stdDeviation="1"></feGaussianBlur><feOffset dx="1" dy="1" result="afterOffset"></feOffset><feFlood flood-color="#000000" flood-opacity="0.5"></feFlood><feComposite in2="afterOffset" operator="in"></feComposite><feMorphology operator="dilate" radius="1"></feMorphology><feComposite in2="SourceAlpha" operator="out"></feComposite></filter><path d="M259.76 415.27L269.76 415.27L269.76 425.27L259.76 415.27ZM239.69 395.19L229.76 385.27L269.76 385.27L269.76 395.19L239.69 395.19ZM209.76 365.27L199.8 355.31L269.76 355.31L269.76 365.27L209.76 365.27ZM269.76 335.27L179.76 335.27L169.76 325.27L269.76 325.27L269.76 335.27Z" id="a5ZuedVcnn" fill="white" fill-opacity="1" filter="url(#shadow9483788)"></path></g><use xlink:href="#e2j7mmu6Dg" opacity="1" fill="#000000" fill-opacity="1"></use><g><use xlink:href="#e2j7mmu6Dg" opacity="1" fill-opacity="0" stroke="#ffffff" stroke-width="1" stroke-opacity="0"></use></g></g></g></svg>